<svg class="absolute top-0 left-[-112px] right-0 bottom-0 m-auto w-4 h-4" width="20" height="20" viewBox="0 0 20 20" fill="none" xmlns="http://www.w3.org/2000/svg">
    <path class="transform origin-center transition-transform duration-300 group-hover:scale-150" id="star-bottom" d="M11.1718 9.68706C11.2845 9.38235 11.7155 9.38235 11.8282 9.68706L12.3895 11.2037C12.4249 11.2995 12.5005 11.3751 12.5963 11.4105L14.1129 11.9717C14.4176 12.0845 14.4176 12.5155 14.1129 12.6282L12.5963 13.1895C12.5005 13.2249 12.4249 13.3004 12.3895 13.3962L11.8282 14.9129C11.7155 15.2176 11.2845 15.2176 11.1718 14.9129L10.6105 13.3962C10.5751 13.3004 10.4995 13.2249 10.4037 13.1895L8.88708 12.6282C8.58236 12.5155 8.58236 12.0845 8.88708 11.9717L10.4037 11.4105C10.4995 11.3751 10.5751 11.2995 10.6105 11.2037L11.1718 9.68706Z" fill="#FF4438"></path>
    <path class="transform origin-center transition-transform duration-300 group-hover:scale-50" id="star-top" d="M5.27175 1.68707C5.38451 1.38235 5.81549 1.38235 5.92825 1.68706L7.05666 4.73654C7.09211 4.83235 7.16764 4.90788 7.26344 4.94333L10.3129 6.07174C10.6176 6.18449 10.6176 6.61548 10.3129 6.72824L7.26344 7.85665C7.16764 7.8921 7.09211 7.96763 7.05666 8.06343L5.92825 11.1129C5.81549 11.4176 5.38451 11.4176 5.27175 11.1129L4.14334 8.06343C4.10789 7.96763 4.03236 7.8921 3.93656 7.85665L0.887077 6.72824C0.582361 6.61548 0.58236 6.18449 0.887077 6.07174L3.93656 4.94333C4.03236 4.90788 4.10789 4.83235 4.14334 4.73654L5.27175 1.68707Z" fill="#FF4438"></path>
</svg>